<svg width="4191" height="2178" style="background-color:white" xmlns="http://www.w3.org/2000/svg" xmlns:xlink="http://www.w3.org/1999/xlink" xml:space="preserve" overflow="hidden">
  <defs>
    <clipPath id="clip0">
      <rect x="66" y="210" width="4191" height="2178"/>
    </clipPath>
  </defs>
  <g clip-path="url(#clip0)" transform="translate(-66 -210)">
    <path d="M487.5 379.5C487.5 364.588 498.469 352.5 512 352.5 525.531 352.5 536.5 364.588 536.5 379.5 536.5 394.412 525.531 406.5 512 406.5 498.469 406.5 487.5 394.412 487.5 379.5Z" stroke="#006047" stroke-width="9.16667" stroke-linejoin="round" stroke-miterlimit="10" fill="#008564" fill-rule="evenodd"/>
    <text font-family="Calibri,Calibri_MSFontService,sans-serif" font-weight="700" font-size="64" transform="matrix(1 0 0 1 104.76 290)">REDFISH_FEATURE_CALLBACK()</text>
    <rect x="609.5" y="522.5" width="709" height="133" stroke="#000000" stroke-width="4.58333" stroke-linejoin="round" stroke-miterlimit="10" fill="none"/>
    <text font-family="Calibri,Calibri_MSFontService,sans-serif" font-weight="700" font-size="64" transform="matrix(1 0 0 1 839.622 610)">Identify()</text>
    <rect x="1178.5" y="767.5" width="709" height="133" stroke="#000000" stroke-width="4.58333" stroke-linejoin="round" stroke-miterlimit="10" fill="none"/>
    <text font-family="Calibri,Calibri_MSFontService,sans-serif" font-weight="700" font-size="64" transform="matrix(1 0 0 1 1433.4 855)">Check()</text>
    <rect x="1759.5" y="1046.5" width="709" height="134" stroke="#000000" stroke-width="4.58333" stroke-linejoin="round" stroke-miterlimit="10" fill="none"/>
    <text font-family="Calibri,Calibri_MSFontService,sans-serif" font-weight="700" font-size="64" transform="matrix(1 0 0 1 1928.64 1134)">Provisioning()</text>
    <rect x="1597.5" y="1422.5" width="709" height="133" stroke="#000000" stroke-width="4.58333" stroke-linejoin="round" stroke-miterlimit="10" fill="none"/>
    <text font-family="Calibri,Calibri_MSFontService,sans-serif" font-weight="700" font-size="64" transform="matrix(1 0 0 1 1808.4 1510)">Consume()</text>
    <rect x="2140.5" y="1730.5" width="709" height="133" stroke="#000000" stroke-width="4.58333" stroke-linejoin="round" stroke-miterlimit="10" fill="none"/>
    <text font-family="Calibri,Calibri_MSFontService,sans-serif" font-weight="700" font-size="64" transform="matrix(1 0 0 1 2376.59 1818)">Update()</text>
    <path d="M0-2.29167 182.65-2.29167C183.915-2.29167 184.941-1.26565 184.941 0L184.941 74.3695 180.358 74.3695 180.358 0 182.65 2.29167 0 2.29167ZM196.4 69.7861 182.65 97.2861 168.9 69.7861Z" fill="#008563" transform="matrix(1.83697e-16 1 1 -1.83697e-16 511.5 406.5)"/>
    <path d="M988.5 831.208 1083.64 831.208C1084.91 831.208 1085.93 832.234 1085.93 833.5L1085.93 833.591 1083.64 831.299 1155.86 831.299 1155.86 835.882 1083.64 835.882C1082.37 835.882 1081.35 834.856 1081.35 833.591L1081.35 833.5 1083.64 835.792 988.5 835.792ZM1151.28 819.841 1178.78 833.591 1151.28 847.341Z" fill="#008563"/>
    <path d="M0-2.29167 101.164-2.29167C102.43-2.29167 103.456-1.26565 103.456 0L103.456 0.633366 101.164-1.6583 179.411-1.6583 179.411 2.92503 101.164 2.92503C99.8983 2.92503 98.8722 1.89902 98.8722 0.633366L98.8722 0 101.164 2.29167 0 2.29167ZM174.827-13.1166 202.327 0.633366 174.827 14.3834Z" fill="#008563" transform="matrix(1 0 0 -1 1557.5 1114.13)"/>
    <path d="M0-2.29167 348.186-2.29167C349.452-2.29167 350.478-1.26565 350.478 0L350.478 42.4958 345.894 42.4958 345.894 0 348.186 2.29167 0 2.29167ZM361.936 37.9125 348.186 65.4125 334.436 37.9125Z" fill="#008563" transform="matrix(1.83697e-16 1 1 -1.83697e-16 1532.5 1141.5)"/>
    <path d="M0-2.29167 241.064-2.29167C242.329-2.29167 243.356-1.26565 243.356 0L243.356 165.488 238.772 165.488 238.772 0 241.064 2.29167 0 2.29167ZM254.814 160.904 241.064 188.404 227.314 160.904Z" fill="#008563" transform="matrix(1.83697e-16 1 1 -1.83697e-16 1952.5 1555.5)"/>
    <path d="M511.5 2311.5C511.5 2296.59 522.469 2284.5 536 2284.5 549.531 2284.5 560.5 2296.59 560.5 2311.5 560.5 2326.41 549.531 2338.5 536 2338.5 522.469 2338.5 511.5 2326.41 511.5 2311.5Z" stroke="#006047" stroke-width="9.16667" stroke-linejoin="round" stroke-miterlimit="10" fill="#008564" fill-rule="evenodd"/>
    <text font-family="Calibri,Calibri_MSFontService,sans-serif" font-weight="400" font-size="64" transform="matrix(1 0 0 1 316.965 2332)">Done </text>
    <path d="M965.584 860.5 965.584 1572.52C965.584 1573.79 964.558 1574.82 963.292 1574.82L535.5 1574.82 537.792 1572.52 537.792 2261.63 533.209 2261.63 533.209 1572.52C533.209 1571.26 534.235 1570.23 535.5 1570.23L963.292 1570.23 961.001 1572.52 961.001 860.5ZM549.25 2257.05 535.5 2284.55 521.75 2257.05Z" fill="#008563"/>
    <path d="M2497.82 1863.5 2497.82 2311.4C2497.82 2312.67 2496.79 2313.7 2495.53 2313.7L583.418 2313.7 583.418 2309.11 2495.53 2309.11 2493.23 2311.4 2493.23 1863.5ZM588 2325.15 560.5 2311.4 588 2297.65Z" fill="#008563"/>
    <path d="M2728 1074.17C2728 1059.72 2739.72 1048 2754.17 1048L3410.83 1048C3425.28 1048 3437 1059.72 3437 1074.17L3437 1178.83C3437 1193.28 3425.28 1205 3410.83 1205L2754.17 1205C2739.72 1205 2728 1193.28 2728 1178.83Z" fill="#0071C5" fill-rule="evenodd" fill-opacity="0.501961"/>
    <text font-family="Calibri,Calibri_MSFontService,sans-serif" font-weight="700" font-size="64" transform="matrix(1 0 0 1 2869.23 1148)">HTTP </text>
    <text font-family="Calibri,Calibri_MSFontService,sans-serif" font-weight="700" font-size="64" transform="matrix(1 0 0 1 3021.62 1148)">PATCH</text>
    <path d="M3112 2034.33C3112 2015.37 3127.37 2000 3146.33 2000L3786.67 2000C3805.63 2000 3821 2015.37 3821 2034.33L3821 2171.67C3821 2190.63 3805.63 2206 3786.67 2206L3146.33 2206C3127.37 2206 3112 2190.63 3112 2171.67Z" fill="#0071C5" fill-rule="evenodd" fill-opacity="0.501961"/>
    <text font-family="Arial,Arial_MSFontService,sans-serif" font-weight="400" font-size="64" transform="matrix(1 0 0 1 3191.74 2127)">HTTP </text>
    <text fill="#FF0000" font-family="Arial,Arial_MSFontService,sans-serif" font-weight="400" font-size="64" transform="matrix(1 0 0 1 3376.79 2127)">PATCH</text>
    <rect x="1572" y="418" width="896" height="130" fill="#008564"/>
    <text font-family="Calibri,Calibri_MSFontService,sans-serif" font-weight="700" font-size="64" transform="matrix(1 0 0 1 1655.98 505)">RedfishResourceIdentifyLib</text>
    <path d="M0.0452146-1.71815 11.9202-1.40565 23.8145-0.526554 35.5234 0.919242 46.906 2.80438 57.9272 5.19539 68.5072 8.02728 78.5249 11.2384 87.9266 14.8322 96.5836 18.7466 104.375 22.923 111.238 27.3016 117.131 31.9661 121.965 36.7847C122.036 36.8551 122.1 36.9316 122.157 37.0131L125.532 41.8256C125.598 41.9198 125.655 42.0203 125.701 42.1257L127.826 47.0007C127.885 47.1376 127.927 47.2817 127.949 47.4294L128.699 52.3669 129.449 57.3044 129.326 56.8757 131.451 61.7507 131.282 61.4506 134.657 66.2631 134.465 66.0347 139.153 70.7222 144.756 75.1536 151.363 79.3641 158.938 83.423 167.396 87.2466 176.555 90.7711 186.4 93.9259 196.82 96.7148 207.677 99.0704 218.967 100.929 231.233 102.16 230.889 105.58 218.408 104.321 206.948 102.43 195.93 100.035 185.35 97.1991 175.32 93.9789 165.979 90.3784 157.312 86.452 149.512 82.2609 142.619 77.8464 136.722 73.1528 132.035 68.4653C131.964 68.3949 131.9 68.3184 131.843 68.2369L128.468 63.4244C128.402 63.3302 128.345 63.2297 128.299 63.1243L126.174 58.2493C126.115 58.1124 126.073 57.9683 126.051 57.8206L125.301 52.8831 124.551 47.9456 124.674 48.3743 122.549 43.4993 122.718 43.7994 119.343 38.9869 119.535 39.2153 114.994 34.6589 109.387 30.1984 102.75 25.952 95.1664 21.8784 86.6984 18.0428 77.475 14.5116 67.6178 11.3477 57.1978 8.55461 46.344 6.19562 35.1016 4.33076 23.5605 2.90155 11.8298 2.03065-0.0452146 1.71815ZM227.312 89.8694 253.937 105.246 225.66 117.32Z" fill="#008563" transform="matrix(1 0 0 -1 1318.5 588.746)"/>
    <rect x="2687" y="738" width="425" height="102" fill="#5D1682" fill-opacity="0.501961"/>
    <text font-family="Calibri,Calibri_MSFontService,sans-serif" font-weight="700" font-size="50" transform="matrix(1 0 0 1 2797.23 806)">GetData</text>
    <text font-family="Calibri,Calibri_MSFontService,sans-serif" font-weight="700" font-size="50" transform="matrix(1 0 0 1 2970.82 806)">()</text>
    <text fill="#890C58" font-family="Calibri,Calibri_MSFontService,sans-serif" font-style="italic" font-weight="700" font-size="46" transform="matrix(1 0 0 1 2696.04 693)">EDKII_REDFISH_RESOURCE_ADDENDUM_PROTOCOL</text>
    <path d="M0.0837419-1.71671 5.20874-1.46671 10.4785-0.765991 15.7435 0.383721 21.0012 1.98096 26.1383 4.02918 31.2374 6.44749 36.2738 9.24844 41.2531 12.499 50.8027 19.8914 59.9974 28.63 68.7284 38.5528 76.822 49.544 84.2726 61.5307 91.0188 74.258 96.9486 87.7463 101.933 101.866 105.969 116.416 108.997 131.282 110.831 146.482 111.467 161.742 112.092 176.867 113.894 191.795 116.872 206.407 120.844 220.729 125.746 234.616 131.574 247.871 138.147 260.389 145.458 272.09 153.443 282.851 161.92 292.557 170.872 301.067 180.183 308.333 184.928 311.366 189.774 314.061 189.495 313.937 197.654 316.733 196.54 319.985 188.38 317.188C188.284 317.155 188.19 317.114 188.101 317.064L183.072 314.259 178.067 311.042 168.503 303.557 159.33 294.818 150.682 284.899 142.542 273.91 135.103 261.986 128.426 249.254 122.504 235.759 117.531 221.646 113.503 207.093 110.481 192.205 108.658 177.008 108.033 161.883 107.419 146.893 105.628 131.968 102.656 117.334 98.6916 103.009 93.8014 89.1287 87.9812 75.867 81.3524 63.3443 74.053 51.581 66.1466 40.8222 57.6276 31.12 48.6973 22.6086 39.3719 15.376 34.6012 12.2516 29.7626 9.55251 24.8617 7.22082 19.9988 5.26904 15.0065 3.74128 10.0215 2.64099 5.04126 1.96671-0.0837419 1.71671ZM195.756 303.927 219.415 323.564 189.51 330.709Z" fill="#890857" transform="matrix(1 0 0 -1 2468.5 1113.06)"/>
    <rect x="2690" y="863" width="422" height="102" fill="#5D1682" fill-opacity="0.501961"/>
    <text font-family="Calibri,Calibri_MSFontService,sans-serif" font-weight="700" font-size="50" transform="matrix(1 0 0 1 2757.16 931)">GeOemData</text>
    <text font-family="Calibri,Calibri_MSFontService,sans-serif" font-weight="700" font-size="50" transform="matrix(1 0 0 1 3013.82 931)">()</text>
    <path d="M0.092493-1.71626 10.53-1.15376 21.0276 0.553809 31.3759 3.27561 41.4048 6.94903 51.1654 11.5055 60.4854 16.8871 69.2961 23.028 77.5298 29.798 85.1321 37.1392 91.9881 45.0638 98.02 53.4335 103.109 62.1333 107.25 71.1596 110.32 80.4632 112.247 89.9086 112.902 99.4474 113.527 108.76 115.372 117.784 118.32 126.713 122.313 135.41 127.292 143.813 133.088 151.941 139.734 159.559 147.137 166.769 155.155 173.36 163.727 179.273 172.798 184.512 182.29 188.943 192.089 192.51 191.834 192.439 199.996 194.058 199.327 197.43 191.165 195.811C191.079 195.794 190.994 195.77 190.911 195.74L180.835 192.057 171.077 187.488 161.773 182.102 152.97 176.015 144.738 169.231 137.141 161.816 130.287 153.934 124.333 145.562 119.187 136.84 115.055 127.787 112.003 118.466 110.098 108.99 109.473 99.6776 108.878 90.5914 107.055 81.5368 104.125 72.5904 100.141 63.8667 95.23 55.4415 89.3869 47.3112 82.7429 39.6108 75.3452 32.452 67.3289 25.847 58.7646 19.8629 49.7096 14.6195 40.2202 10.176 30.4991 6.59939 20.4724 3.94619 10.345 2.27876-0.092493 1.71626ZM197.096 181.479 222.341 199.029 193.154 208.695Z" fill="#890857" transform="matrix(1 0 0 -1 2468.5 1113.53)"/>
    <path d="M0.0142748-1.71869 37.6393-1.40619 56.1033-0.968266 74.1162-0.405411 91.5677 0.282584 108.209 1.0958 124.032 1.97138 138.811 3.03569 152.384 4.099 164.666 5.28927 170.254 5.917 175.456 6.54359 180.246 7.23647 184.618 7.86102 188.55 8.55768 192.081 9.25098 195.079 9.95147 197.643 10.6553 199.7 11.3802 201.269 12.1502C201.394 12.2131 201.512 12.2911 201.619 12.3825L202.494 13.1325C202.684 13.2956 202.836 13.4982 202.94 13.7263L203.252 14.4138 203.565 15.1013 203.119 14.5075 203.994 15.2575 203.644 15.0252 205.019 15.7127 206.762 16.3177 209.143 16.9678 212.017 17.639 215.456 18.3135 219.3 18.9952 223.618 19.611 228.371 20.299 233.518 20.9186 239.067 21.542 251.291 22.7268 264.822 23.7865 279.561 24.8482 295.283 25.7214 311.959 26.5333 329.318 27.2201 347.304 27.7821 365.722 28.1566 380.37 28.2979 380.337 31.7352 365.653 31.5934 347.196 31.2179 329.182 30.6549 311.791 29.9667 295.092 29.1536 279.314 28.2768 264.553 27.2135 250.959 26.1482 238.683 24.958 233.107 24.3314 227.879 23.701 223.132 23.014 218.7 22.3798 214.794 21.6865 211.233 20.986 208.232 20.2822 205.613 19.5573 203.481 18.7873 202.106 18.0998C201.981 18.0369 201.863 17.9589 201.756 17.8675L200.881 17.1175C200.691 16.9544 200.539 16.7518 200.435 16.5237L200.123 15.8362 199.81 15.1487 200.256 15.7425 199.381 14.9925 199.731 15.2248 198.55 14.6198 196.732 13.9697 194.296 13.2985 191.419 12.624 187.95 11.9423 184.132 11.264 179.754 10.6385 175.044 9.95641 169.871 9.333 164.334 8.71073 152.116 7.526 138.564 6.46431 123.843 5.40363 108.041 4.5292 91.4323 3.71742 74.0088 3.03041 56.0217 2.46827 37.6107 2.03119-0.0142748 1.71869ZM375.903 16.223 403.269 30.2377 375.637 43.7217Z" fill="#890857" transform="matrix(1 0 0 -1 2849.5 1796.74)"/>
    <path d="M2849.52 1794.78 2868.52 1795.03 2887.45 1795.85 2906.05 1797.1 2924.23 1798.85 2941.83 1800.98 2958.63 1803.49 2974.62 1806.37 2989.49 1809.57 3003.23 1813.02 3015.62 1816.73 3021.31 1818.69 3026.61 1820.71 3031.47 1822.73 3035.92 1824.82 3039.92 1826.91 3043.47 1829.1 3046.57 1831.36 3049.18 1833.57 3051.29 1835.92C3051.34 1835.98 3051.39 1836.05 3051.44 1836.12L3052.87 1838.31C3052.94 1838.41 3053 1838.51 3053.04 1838.63L3053.91 1840.88C3053.96 1841 3054 1841.13 3054.01 1841.26L3054.33 1843.44 3054.64 1845.63 3054.54 1845.25 3055.41 1847.5 3055.25 1847.18 3056.69 1849.37 3056.54 1849.17 3058.47 1851.36 3060.8 1853.32 3063.7 1855.42 3067.01 1857.4 3070.88 1859.49 3075.17 1861.51 3079.91 1863.48 3085.09 1865.39 3090.68 1867.31 3102.93 1870.98 3116.54 1874.4 3131.3 1877.57 3147.12 1880.43 3163.88 1882.92 3181.33 1885.04 3199.42 1886.79 3217.99 1888.04 3232.84 1888.55 3232.72 1891.99 3217.76 1891.46 3199.08 1890.21 3180.92 1888.46 3163.37 1886.32 3146.51 1883.82 3130.58 1880.93 3115.71 1877.73 3101.94 1874.27 3089.56 1870.56 3083.9 1868.61 3078.59 1866.65 3073.7 1864.62 3069.25 1862.51 3065.24 1860.35 3061.67 1858.2 3058.57 1855.93 3055.9 1853.64 3053.96 1851.45C3053.91 1851.39 3053.86 1851.32 3053.81 1851.26L3052.38 1849.07C3052.31 1848.97 3052.25 1848.86 3052.21 1848.75L3051.34 1846.5C3051.29 1846.38 3051.25 1846.25 3051.24 1846.12L3050.92 1843.93 3050.61 1841.74 3050.71 1842.12 3049.84 1839.87 3050 1840.19 3048.56 1838.01 3048.71 1838.2 3046.95 1836.18 3044.55 1834.14 3041.66 1832.02 3038.33 1829.96 3034.45 1827.93 3030.15 1825.9 3025.39 1823.92 3020.19 1821.94 3014.63 1820.02 3002.39 1816.35 2988.76 1812.93 2974.01 1809.75 2958.12 1806.89 2941.42 1804.39 2923.9 1802.27 2905.82 1800.53 2887.3 1799.28 2868.48 1798.47 2849.48 1798.22ZM3228.52 1876.42 3255.7 1890.8 3227.88 1903.91Z" fill="#890857"/>
    <path d="M2578 1103.75 2638.5 1103.75 2638.5 1080 2686 1127.5 2638.5 1175 2638.5 1151.25 2578 1151.25Z" fill="#0071C5" fill-rule="evenodd" fill-opacity="0.501961"/>
    <path d="M2956.92 1877.31 3000.36 1919.95 3016.93 1903.07 3017.55 1969.96 2950.65 1970.59 2967.22 1953.71 2923.79 1911.07Z" fill="#0071C5" fill-rule="evenodd" fill-opacity="0.501961"/>
    <path d="M939.5 833.5C939.5 818.588 950.469 806.5 964 806.5 977.531 806.5 988.5 818.588 988.5 833.5 988.5 848.412 977.531 860.5 964 860.5 950.469 860.5 939.5 848.412 939.5 833.5Z" stroke="#006047" stroke-width="9.16667" stroke-linejoin="round" stroke-miterlimit="10" fill="#008564" fill-rule="evenodd"/>
    <path d="M965.792 655.5 965.792 730.981C965.792 732.247 964.766 733.273 963.501 733.273L963.5 733.273 965.792 730.981 965.792 783.546 961.208 783.546 961.208 730.981C961.208 729.716 962.235 728.69 963.5 728.69L963.501 728.69 961.209 730.981 961.209 655.5ZM977.25 778.963 963.5 806.463 949.75 778.963Z" fill="#008563"/>
    <text font-family="Arial,Arial_MSFontService,sans-serif" font-weight="400" font-size="55" transform="matrix(1 0 0 1 815.508 946)">false</text>
    <text font-family="Arial,Arial_MSFontService,sans-serif" font-weight="400" font-size="55" transform="matrix(1 0 0 1 1029.08 808)">true</text>
    <path d="M1507.5 1114.5C1507.5 1099.59 1518.69 1087.5 1532.5 1087.5 1546.31 1087.5 1557.5 1099.59 1557.5 1114.5 1557.5 1129.41 1546.31 1141.5 1532.5 1141.5 1518.69 1141.5 1507.5 1129.41 1507.5 1114.5Z" stroke="#006047" stroke-width="9.16667" stroke-linejoin="round" stroke-miterlimit="10" fill="#008564" fill-rule="evenodd"/>
    <path d="M1535.38 900.5 1535.38 993.849C1535.38 995.114 1534.35 996.14 1533.09 996.14L1532.5 996.14 1534.79 993.849 1534.79 1064.28 1530.21 1064.28 1530.21 993.849C1530.21 992.583 1531.23 991.557 1532.5 991.557L1533.09 991.557 1530.8 993.849 1530.8 900.5ZM1546.25 1059.7 1532.5 1087.2 1518.75 1059.7Z" fill="#008563"/>
    <text font-family="Arial,Arial_MSFontService,sans-serif" font-weight="400" font-size="55" transform="matrix(1 0 0 1 1405.87 1282)">true</text>
    <text font-family="Arial,Arial_MSFontService,sans-serif" font-weight="400" font-size="55" transform="matrix(1 0 0 1 1590.37 1071)">false</text>
    <text font-family="Calibri,Calibri_MSFontService,sans-serif" font-weight="400" font-size="64" transform="matrix(1 0 0 1 328.764 396)">Start</text>
    <path d="M0 0 177.266 0 177.266 2109.2 354.533 2109.2" stroke="#008563" stroke-width="4.58333" stroke-linejoin="round" stroke-miterlimit="10" fill="none" fill-rule="evenodd" transform="matrix(1.83697e-16 1 1 -1.83697e-16 2113.5 1180.5)"/>
    <path d="M4225.53 1612.5 4225.53 2311.62C4225.53 2312.89 4224.5 2313.91 4223.23 2313.91L583.414 2313.91 583.414 2309.33 4223.23 2309.33 4220.94 2311.62 4220.94 1612.5ZM588 2325.37 560.5 2311.62 588 2297.87Z" fill="#008563"/>
    <path d="M4223.5 1536.5 4223.5 1612.57" stroke="#008563" stroke-width="4.58333" stroke-linejoin="round" stroke-miterlimit="10" fill="none" fill-rule="evenodd"/>
    <path d="M2464 1438.17C2464 1423.72 2475.72 1412 2490.17 1412L3146.83 1412C3161.28 1412 3173 1423.72 3173 1438.17L3173 1542.83C3173 1557.28 3161.28 1569 3146.83 1569L2490.17 1569C2475.72 1569 2464 1557.28 2464 1542.83Z" fill="#0071C5" fill-rule="evenodd" fill-opacity="0.501961"/>
    <text font-family="Calibri,Calibri_MSFontService,sans-serif" font-weight="700" font-size="64" transform="matrix(1 0 0 1 2601 1512)">HTTP </text>
    <text font-family="Calibri,Calibri_MSFontService,sans-serif" font-weight="700" font-size="64" transform="matrix(1 0 0 1 2753.4 1512)">HEAD/GET</text>
    <path d="M2337 1468.5 2398 1468.5 2398 1445 2445 1492 2398 1539 2398 1515.5 2337 1515.5Z" fill="#0071C5" fill-rule="evenodd" fill-opacity="0.501961"/>
    <rect x="3253" y="1715" width="424" height="102" fill="#5D1682" fill-opacity="0.501961"/>
    <text font-family="Calibri,Calibri_MSFontService,sans-serif" font-weight="700" font-size="50" transform="matrix(1 0 0 1 3362.57 1783)">GetData</text>
    <text font-family="Calibri,Calibri_MSFontService,sans-serif" font-weight="700" font-size="50" transform="matrix(1 0 0 1 3536.17 1783)">()</text>
    <text fill="#890C58" font-family="Calibri,Calibri_MSFontService,sans-serif" font-style="italic" font-weight="700" font-size="46" transform="matrix(1 0 0 1 3195.85 1686)">EDKII_REDFISH_RESOURCE_ADDENDUM_PROTOCOL</text>
    <rect x="3256" y="1840" width="421" height="102" fill="#5D1682" fill-opacity="0.501961"/>
    <text font-family="Calibri,Calibri_MSFontService,sans-serif" font-weight="700" font-size="50" transform="matrix(1 0 0 1 3322.5 1908)">GeOemData</text>
    <text font-family="Calibri,Calibri_MSFontService,sans-serif" font-weight="700" font-size="50" transform="matrix(1 0 0 1 3579.17 1908)">()</text>
  </g>
</svg>
