<svg width="4287" height="2303" style="background-color:white" xmlns="http://www.w3.org/2000/svg" xmlns:xlink="http://www.w3.org/1999/xlink" xml:space="preserve" overflow="hidden">
  <defs>
    <clipPath id="clip0">
      <rect x="29" y="171" width="4287" height="2303"/>
    </clipPath>
  </defs>
  <g clip-path="url(#clip0)" transform="translate(-29 -171)">
    <rect x="33" y="171" width="1544" height="436" fill="#F2F2F2"/>
    <path d="M3300 305.835C3300 231.368 3360.37 171 3434.84 171L3974.16 171C4048.63 171 4109 231.368 4109 305.835L4109 1758.16C4109 1832.63 4048.63 1893 3974.16 1893L3434.84 1893C3360.37 1893 3300 1832.63 3300 1758.16Z" fill="#E8E8E8" fill-rule="evenodd"/>
    <path d="M616 846C616 827.222 631.223 812 650.001 812L1142 812C1160.78 812 1176 827.222 1176 846L1176 982C1176 1000.78 1160.78 1016 1142 1016L650.001 1016C631.223 1016 616 1000.78 616 982Z" fill="#76B900" fill-rule="evenodd"/>
    <text fill="#FFFFFF" font-family="Trebuchet MS,Trebuchet MS_MSFontService,sans-serif" font-weight="400" font-size="55" transform="matrix(1 0 0 1 703.081 901)">Redfish Feature </text>
    <text fill="#FFFFFF" font-family="Trebuchet MS,Trebuchet MS_MSFontService,sans-serif" font-weight="400" font-size="55" transform="matrix(1 0 0 1 756.935 960)">Core Driver</text>
    <rect x="30.5001" y="635.5" width="797" height="144" stroke="#000000" stroke-width="3.4375" stroke-linejoin="round" stroke-miterlimit="10" fill="none"/>
    <text font-family="Calibri,Calibri_MSFontService,sans-serif" font-weight="700" font-size="55" transform="matrix(1 0 0 1 63.3886 702)">Event driven</text>
    <text font-family="Calibri,Calibri_MSFontService,sans-serif" font-style="italic" font-weight="400" font-size="37" transform="matrix(1 0 0 1 63.3886 751)">PcdEdkIIRedfishFeatureDriverStartupEventGuid</text>
    <path d="M0.11336-2.86234 6.42586-2.61234 12.9907-1.77865 19.4637-0.428434 25.9229 1.43627 32.3153 3.81669 38.6329 6.70925 44.8331 9.96451 50.9302 13.6801 56.9417 17.8314 62.8126 22.3572 68.5498 27.2608 74.153 32.5411 84.7977 44.1253 94.8188 56.9226 104.013 70.7936 112.257 85.6759 119.538 101.424 125.742 117.799 130.688 134.762 134.365 152.159 135.732 164.561 130.036 165.182 128.76 153.341 125.187 136.363 120.383 119.826 114.337 103.826 107.243 88.4491 99.2365 73.9564 90.3062 60.4524 80.5773 47.9997 70.222 36.7089 64.8252 31.6142 59.3124 26.8928 53.6833 22.5436 47.9448 18.5699 42.1669 15.0355 36.2421 11.9158 30.3096 9.1833 24.3271 6.93873 18.2863 5.17843 12.2593 3.90365 6.19914 3.11234-0.11336 2.86234ZM146.247 159.259 134.621 187.722 118.826 161.343Z" fill="#8C8C8C" transform="matrix(1.83697e-16 1 1 -1.83697e-16 429 779)"/>
    <rect x="33.4998" y="1065.5" width="727" height="177" stroke="#BCBCBC" stroke-width="9.16667" stroke-linejoin="round" stroke-miterlimit="10" fill="#FFFFFF"/>
    <text font-family="Calibri,Calibri_MSFontService,sans-serif" font-weight="700" font-size="55" transform="matrix(1 0 0 1 65.7033 1129)">Ready</text>
    <text font-family="Calibri,Calibri_MSFontService,sans-serif" font-weight="700" font-size="55" transform="matrix(1 0 0 1 206.641 1129)">-</text>
    <text font-family="Calibri,Calibri_MSFontService,sans-serif" font-weight="700" font-size="55" transform="matrix(1 0 0 1 223.255 1129)">to</text>
    <text font-family="Calibri,Calibri_MSFontService,sans-serif" font-weight="700" font-size="55" transform="matrix(1 0 0 1 271.953 1129)">-</text>
    <text font-family="Calibri,Calibri_MSFontService,sans-serif" font-weight="700" font-size="55" transform="matrix(1 0 0 1 288.568 1129)">Provision Signal</text>
    <text font-family="Calibri,Calibri_MSFontService,sans-serif" font-style="italic" font-weight="400" font-size="37" transform="matrix(1 0 0 1 65.7033 1173)">gEfiRedfishClientFeatureReadyToProvisionin</text>
    <text font-family="Calibri,Calibri_MSFontService,sans-serif" font-style="italic" font-weight="400" font-size="37" transform="matrix(1 0 0 1 65.7033 1213)">gGuid</text>
    <rect x="33.4998" y="2310.5" width="727" height="144" stroke="#BCBCBC" stroke-width="9.16667" stroke-linejoin="round" stroke-miterlimit="10" fill="#FFFFFF"/>
    <text font-family="Calibri,Calibri_MSFontService,sans-serif" font-weight="700" font-size="55" transform="matrix(1 0 0 1 65.7037 2358)">After</text>
    <text font-family="Calibri,Calibri_MSFontService,sans-serif" font-weight="700" font-size="55" transform="matrix(1 0 0 1 182.006 2358)">-</text>
    <text font-family="Calibri,Calibri_MSFontService,sans-serif" font-weight="700" font-size="55" transform="matrix(1 0 0 1 198.62 2358)">Provision Signal</text>
    <text font-family="Calibri,Calibri_MSFontService,sans-serif" font-style="italic" font-weight="400" font-size="37" transform="matrix(1 0 0 1 65.7037 2402)">gEfiRedfishClientFeatureAfterProvisioningG</text>
    <text font-family="Calibri,Calibri_MSFontService,sans-serif" font-style="italic" font-weight="400" font-size="37" transform="matrix(1 0 0 1 65.7037 2442)">uid</text>
    <path d="M898.61 1016 898.61 1153.86C898.61 1155.44 897.327 1156.72 895.745 1156.72L782.917 1156.72 782.917 1150.99 895.745 1150.99 892.881 1153.86 892.881 1016ZM787.5 1167.61 760 1153.86 787.5 1140.11Z" fill="#8C8C8C"/>
    <path d="M898.61 1016 898.61 2382.49C898.61 2384.08 897.327 2385.36 895.745 2385.36L782.917 2385.36 782.917 2379.63 895.745 2379.63 892.881 2382.49 892.881 1016ZM787.5 2396.24 760 2382.49 787.5 2368.74Z" fill="#8C8C8C"/>
    <path d="M1192.5 1194.67C1192.5 1181.32 1203.32 1170.5 1216.67 1170.5L1690.33 1170.5C1703.68 1170.5 1714.5 1181.32 1714.5 1194.67L1714.5 1291.33C1714.5 1304.68 1703.68 1315.5 1690.33 1315.5L1216.67 1315.5C1203.32 1315.5 1192.5 1304.68 1192.5 1291.33Z" stroke="#008564" stroke-width="9.16667" stroke-linejoin="round" stroke-miterlimit="10" fill-rule="evenodd"/>
    <text fill="#FFFFFF" font-family="Calibri,Calibri_MSFontService,sans-serif" font-weight="400" font-size="55" transform="matrix(1 0 0 1 1313.38 1258)">Service Root</text>
    <text font-family="Calibri,Calibri_MSFontService,sans-serif" font-weight="700" font-size="48" transform="matrix(1 0 0 1 1192.27 1131)">/redfish/v1</text>
    <path d="M0-2.86458 226.791-2.86458C228.373-2.86458 229.656-1.58207 229.656 0L229.656 273.147 223.927 273.147 223.927 0 226.791 2.86458 0 2.86458ZM240.541 268.564 226.791 296.064 213.041 268.564Z" fill="#8C8C8C" transform="matrix(1.83697e-16 1 1 -1.83697e-16 896 1016)"/>
    <path d="M1629.5 1428.67C1629.5 1415.32 1640.32 1404.5 1653.67 1404.5L2126.33 1404.5C2139.68 1404.5 2150.5 1415.32 2150.5 1428.67L2150.5 1525.33C2150.5 1538.68 2139.68 1549.5 2126.33 1549.5L1653.67 1549.5C1640.32 1549.5 1629.5 1538.68 1629.5 1525.33Z" stroke="#008564" stroke-width="9.16667" stroke-linejoin="round" stroke-miterlimit="10" fill-rule="evenodd"/>
    <text fill="#FFFFFF" font-family="Calibri,Calibri_MSFontService,sans-serif" font-weight="400" font-size="55" transform="matrix(1 0 0 1 1681.69 1462)">ComputerSystemC</text>
    <text fill="#FFFFFF" font-family="Calibri,Calibri_MSFontService,sans-serif" font-weight="400" font-size="55" transform="matrix(1 0 0 1 1792.26 1521)">ollection</text>
    <text font-family="Calibri,Calibri_MSFontService,sans-serif" font-weight="700" font-size="48" transform="matrix(1 0 0 1 1626.06 1376)">/redfish/v1/Systems</text>
    <path d="M0-2.86458 460.879-2.86458C462.461-2.86458 463.743-1.58207 463.743 0L463.743 709.637 458.014 709.637 458.014 0 460.879 2.86458 0 2.86458ZM474.629 705.053 460.879 732.553 447.129 705.053Z" fill="#8C8C8C" transform="matrix(1.83697e-16 1 1 -1.83697e-16 896 1016)"/>
    <path d="M2512.5 1427.5C2512.5 1414.25 2523.25 1403.5 2536.5 1403.5L3009.5 1403.5C3022.75 1403.5 3033.5 1414.25 3033.5 1427.5L3033.5 1523.5C3033.5 1536.75 3022.75 1547.5 3009.5 1547.5L2536.5 1547.5C2523.25 1547.5 2512.5 1536.75 2512.5 1523.5Z" stroke="#008564" stroke-width="9.16667" stroke-linejoin="round" stroke-miterlimit="10" fill-rule="evenodd"/>
    <text fill="#FFFFFF" font-family="Calibri,Calibri_MSFontService,sans-serif" font-weight="400" font-size="55" transform="matrix(1 0 0 1 2579.22 1490)">ComputerSystem</text>
    <text font-family="Calibri,Calibri_MSFontService,sans-serif" font-weight="700" font-size="48" transform="matrix(1 0 0 1 2510.53 1371)">/redfish/v1/Systems/SYS</text>
    <path d="M0.0107384-2.86456 338.69-1.59496 338.668 4.13417-0.0107384 2.86456ZM334.147-12.4975 361.595 1.35551 334.044 15.0023Z" fill="#8C8C8C" transform="matrix(1 0 0 -1 2150 1476.36)"/>
    <path d="M1889.5 1748.67C1889.5 1735.32 1900.32 1724.5 1913.67 1724.5L2387.33 1724.5C2400.68 1724.5 2411.5 1735.32 2411.5 1748.67L2411.5 1845.33C2411.5 1858.68 2400.68 1869.5 2387.33 1869.5L1913.67 1869.5C1900.32 1869.5 1889.5 1858.68 1889.5 1845.33Z" stroke="#008564" stroke-width="9.16667" stroke-linejoin="round" stroke-miterlimit="10" fill-rule="evenodd"/>
    <text fill="#FFFFFF" font-family="Calibri,Calibri_MSFontService,sans-serif" font-weight="400" font-size="55" transform="matrix(1 0 0 1 2103.34 1812)">Bios</text>
    <path d="M0-2.86458 780.807-2.86458C782.389-2.86458 783.672-1.58207 783.672 0L783.672 970.304 777.943 970.304 777.943 0 780.807 2.86458 0 2.86458ZM794.557 965.718 780.807 993.218 767.057 965.718Z" fill="#8C8C8C" transform="matrix(1.83697e-16 1 1 -1.83697e-16 896 1016)"/>
    <text font-family="Calibri,Calibri_MSFontService,sans-serif" font-weight="700" font-size="48" transform="matrix(1 0 0 1 1894.92 1693)">/redfish/v1/Systems/SYS/Bios</text>
    <path d="M2053.5 2040.5C2053.5 2027.25 2064.25 2016.5 2077.5 2016.5L2551.5 2016.5C2564.75 2016.5 2575.5 2027.25 2575.5 2040.5L2575.5 2136.5C2575.5 2149.75 2564.75 2160.5 2551.5 2160.5L2077.5 2160.5C2064.25 2160.5 2053.5 2149.75 2053.5 2136.5Z" stroke="#008564" stroke-width="9.16667" stroke-linejoin="round" stroke-miterlimit="10" fill-rule="evenodd"/>
    <text fill="#FFFFFF" font-family="Calibri,Calibri_MSFontService,sans-serif" font-weight="400" font-size="55" transform="matrix(1 0 0 1 2106.47 2103)">MemoryCollection</text>
    <path d="M0-2.86458 1072.19-2.86458C1073.77-2.86458 1075.05-1.58207 1075.05 0L1075.05 1134.13 1069.33 1134.13 1069.33 0 1072.19 2.86458 0 2.86458ZM1085.94 1129.55 1072.19 1157.05 1058.44 1129.55Z" fill="#8C8C8C" transform="matrix(1.83697e-16 1 1 -1.83697e-16 896 1016)"/>
    <text font-family="Calibri,Calibri_MSFontService,sans-serif" font-weight="700" font-size="48" transform="matrix(1 0 0 1 2062.37 1981)">/redfish/v1/Systems/SYS/Memory</text>
    <path d="M2920.5 2040.5C2920.5 2027.25 2931.25 2016.5 2944.5 2016.5L3418.5 2016.5C3431.75 2016.5 3442.5 2027.25 3442.5 2040.5L3442.5 2136.5C3442.5 2149.75 3431.75 2160.5 3418.5 2160.5L2944.5 2160.5C2931.25 2160.5 2920.5 2149.75 2920.5 2136.5Z" stroke="#008564" stroke-width="9.16667" stroke-linejoin="round" stroke-miterlimit="10" fill-rule="evenodd"/>
    <text fill="#FFFFFF" font-family="Calibri,Calibri_MSFontService,sans-serif" font-weight="400" font-size="55" transform="matrix(1 0 0 1 3085.32 2103)">Memory</text>
    <path d="M2.98962e-06-2.86458 322.881-2.86425 322.881 2.86492-2.98962e-06 2.86458ZM318.298-13.7497 345.798 0.000360892 318.298 13.7503Z" fill="#8C8C8C" transform="matrix(1 0 0 -1 2575 2088)"/>
    <text font-family="Trebuchet MS,Trebuchet MS_MSFontService,sans-serif" font-weight="400" font-size="183" transform="matrix(1 0 0 1 2263.52 2245)">…</text>
    <path d="M3371.5 822.5C3371.5 809.245 3382.25 798.5 3395.5 798.5L4017.5 798.5C4030.75 798.5 4041.5 809.245 4041.5 822.5L4041.5 918.5C4041.5 931.755 4030.75 942.5 4017.5 942.5L3395.5 942.5C3382.25 942.5 3371.5 931.755 3371.5 918.5Z" stroke="#008564" stroke-width="9.16667" stroke-linejoin="round" stroke-miterlimit="10" fill-rule="evenodd"/>
    <text fill="#FFFFFF" font-family="Calibri,Calibri_MSFontService,sans-serif" font-weight="700" font-size="55" transform="matrix(1 0 0 1 3657.66 885)">Bios</text>
    <rect x="3371" y="601" width="670" height="144" fill="#008564"/>
    <text fill="#FFFFFF" font-family="Calibri,Calibri_MSFontService,sans-serif" font-weight="700" font-size="55" transform="matrix(1 0 0 1 3486.36 688)">Redfish foundation</text>
    <rect x="3371" y="218" width="670" height="145" fill="#5E5E5E"/>
    <text fill="#FFFFFF" font-family="Calibri,Calibri_MSFontService,sans-serif" font-weight="700" font-size="55" transform="matrix(1 0 0 1 3474.33 306)">BMC Redfish service</text>
    <path d="M2.86458-1.95531e-05 2.86479 29.9551-2.86438 29.9552-2.86458 1.95531e-05ZM13.7502 25.3717 0.000360892 52.8718-13.7498 25.3719Z" fill="#8C8C8C" transform="matrix(1 0 0 -1 3706 797.872)"/>
    <path d="M2.86456-0.0103569 2.94628 22.59-2.78285 22.6107-2.86456 0.0103569ZM13.8151 17.9673 0.164567 45.5168-13.6848 18.0667Z" fill="#8C8C8C" transform="matrix(1 0 0 -1 3706 600.517)"/>
    <rect x="3371" y="981" width="670" height="145" fill="#0071C5"/>
    <text fill="#FFFFFF" font-family="Calibri,Calibri_MSFontService,sans-serif" font-weight="700" font-size="55" transform="matrix(1 0 0 1 3434.8 1069)">Redfish Platform Config</text>
    <rect x="3374" y="1304" width="670" height="144" fill="#8C8C8C"/>
    <text fill="#FFFFFF" font-family="Calibri,Calibri_MSFontService,sans-serif" font-weight="700" font-size="55" transform="matrix(1 0 0 1 3610.58 1391)">EDK2 HII</text>
    <rect x="3377" y="1483" width="670" height="145" fill="#890C58"/>
    <text fill="#FFFFFF" font-family="Calibri,Calibri_MSFontService,sans-serif" font-weight="700" font-size="55" transform="matrix(1 0 0 1 3552.42 1571)">Chipset driver</text>
    <rect x="3377" y="1666" width="670" height="144" fill="#5D1682"/>
    <text fill="#FFFFFF" font-family="Calibri,Calibri_MSFontService,sans-serif" font-weight="400" font-size="55" transform="matrix(1 0 0 1 3670.44 1753)">HW</text>
    <path d="M3708.86 942 3708.86 958.191 3703.14 958.191 3703.14 942ZM3719.75 953.607 3706 981.107 3692.25 953.608Z" fill="#8C8C8C"/>
    <path d="M3708.86 1125.94 3712.02 1280.79 3706.29 1280.9 3703.14 1126.06ZM3722.81 1275.98 3709.62 1303.76 3695.31 1276.54Z" fill="#8C8C8C"/>
    <path d="M3711.86 1447.79 3712.77 1460.37 3707.05 1460.78 3706.14 1448.21ZM3723.29 1455.01 3711.57 1483.43 3695.87 1457Z" fill="#8C8C8C"/>
    <path d="M3714.86 1628 3714.86 1643.16 3709.14 1643.16 3709.14 1628ZM3725.75 1638.57 3712 1666.07 3698.25 1638.57Z" fill="#8C8C8C"/>
    <rect x="3371" y="411" width="670" height="144" fill="#0071C5" fill-opacity="0.501961"/>
    <text fill="#FFFFFF" font-family="Calibri,Calibri_MSFontService,sans-serif" font-weight="700" font-size="55" transform="matrix(1 0 0 1 3606.27 498)">Network</text>
    <path d="M3703.3 411.234 3703.21 385.926 3708.94 385.907 3709.03 411.215ZM3692.34 390.547 3706 363 3719.84 390.453Z" fill="#8C8C8C"/>
    <path d="M0-2.86458 22.9167-2.86458 22.9167 2.86458 0 2.86458ZM40.1042-2.86458 63.0208-2.86458 63.0208 2.86458 40.1042 2.86458ZM80.2083-2.86458 103.125-2.86458 103.125 2.86458 80.2083 2.86458ZM120.312-2.86458 143.229-2.86458 143.229 2.86458 120.312 2.86458ZM160.417-2.86458 183.333-2.86458 183.333 2.86458 160.417 2.86458ZM200.521-2.86458 223.438-2.86458 223.438 2.86458 200.521 2.86458ZM240.625-2.86458 263.542-2.86458 263.542 2.86458 240.625 2.86458ZM280.729-2.86458 303.646-2.86458 303.646 2.86458 280.729 2.86458ZM320.833-2.86458 343.75-2.86458 343.75 2.86458 320.833 2.86458ZM360.938-2.86458 383.854-2.86458 383.854 2.86458 360.938 2.86458ZM401.042-2.86458 423.958-2.86458 423.958 2.86458 401.042 2.86458ZM441.146-2.86458 464.062-2.86458 464.062 2.86458 441.146 2.86458ZM481.25-2.86458 504.167-2.86458 504.167 2.86458 481.25 2.86458ZM521.354-2.86458 544.271-2.86458 544.271 2.86458 521.354 2.86458ZM561.458-2.86458 584.375-2.86458 584.375 2.86458 561.458 2.86458ZM601.562-2.86458 624.479-2.86458 624.479 2.86458 601.562 2.86458ZM641.667-2.86458 664.583-2.86458 664.583 2.86458 641.667 2.86458ZM681.771-2.86458 704.688-2.86458 704.688 2.86458 681.771 2.86458ZM721.875-2.86458 744.52-2.86458C746.102-2.86458 747.385-1.58207 747.385 0L747.385 0.271391 741.656 0.271391 741.656 0 744.52 2.86458 721.875 2.86458ZM747.385 17.4589 747.385 40.3756 741.656 40.3756 741.656 17.4589ZM747.385 57.5631 747.385 80.4797 741.656 80.4797 741.656 57.5631ZM747.385 97.6672 747.385 120.584 741.656 120.584 741.656 97.6672ZM747.385 137.771 747.385 160.688 741.656 160.688 741.656 137.771ZM747.385 177.876 747.385 200.792 741.656 200.792 741.656 177.876ZM747.385 217.98 747.385 240.896 741.656 240.896 741.656 217.98ZM747.385 258.084 747.385 281.001 741.656 281.001 741.656 258.084ZM747.385 298.188 747.385 321.105 741.656 321.105 741.656 298.188ZM747.385 338.292 747.385 361.209 741.656 361.209 741.656 338.292ZM747.385 378.396 747.385 401.313 741.656 401.313 741.656 378.396ZM747.385 418.501 747.385 441.417 741.656 441.417 741.656 418.501ZM747.385 458.605 747.385 481.521 741.656 481.521 741.656 458.605ZM747.385 498.709 747.385 521.626 741.656 521.626 741.656 498.709ZM747.385 538.813 747.385 561.73 741.656 561.73 741.656 538.813ZM747.385 578.917 747.385 601.834 741.656 601.834 741.656 578.917ZM747.385 619.021 747.385 641.938 741.656 641.938 741.656 619.021ZM747.385 659.126 747.385 682.042 741.656 682.042 741.656 659.126ZM747.385 699.23 747.385 722.146 741.656 722.146 741.656 699.23ZM747.385 739.334 747.385 762.251 741.656 762.251 741.656 739.334ZM747.385 779.438 747.385 802.355 741.656 802.355 741.656 779.438ZM747.385 819.542 747.385 842.459 741.656 842.459 741.656 819.542ZM747.385 859.646 747.385 882.563 741.656 882.563 741.656 859.646ZM747.385 899.751 747.385 922.667 741.656 922.667 741.656 899.751ZM758.063 923.447 780.98 923.447 780.98 929.176 758.063 929.176ZM798.168 923.447 821.084 923.447 821.084 929.176 798.168 929.176ZM838.272 923.447 861.188 923.447 861.188 929.176 838.272 929.176ZM878.376 923.447 901.293 923.447 901.293 929.176 878.376 929.176ZM918.48 923.447 937.198 923.447 937.198 929.176 918.48 929.176ZM932.615 912.562 960.115 926.312 932.615 940.062Z" fill="#008564" transform="matrix(1 0 0 -1 2411 1796.31)"/>
    <text font-family="Calibri,Calibri_MSFontService,sans-serif" font-weight="400" font-size="50" transform="matrix(1 0 0 1 3733.97 1194)">x</text>
    <text font-family="Calibri,Calibri_MSFontService,sans-serif" font-weight="400" font-size="50" transform="matrix(1 0 0 1 3755.74 1194)">-</text>
    <text font-family="Calibri,Calibri_MSFontService,sans-serif" font-weight="400" font-size="50" transform="matrix(1 0 0 1 3771.21 1194)">uefi</text>
    <text font-family="Calibri,Calibri_MSFontService,sans-serif" font-weight="400" font-size="50" transform="matrix(1 0 0 1 3849.7 1194)">-</text>
    <text font-family="Calibri,Calibri_MSFontService,sans-serif" font-weight="400" font-size="50" transform="matrix(1 0 0 1 3865.17 1194)">redfish</text>
    <text font-family="Calibri,Calibri_MSFontService,sans-serif" font-weight="400" font-size="50" transform="matrix(1 0 0 1 4007.25 1194)">-</text>
    <text fill="#0071C5" font-family="Calibri,Calibri_MSFontService,sans-serif" font-weight="400" font-size="50" transform="matrix(1 0 0 1 4022.72 1194)">Bios.vA_B_C</text>
    <text fill="#0071C5" font-family="Calibri,Calibri_MSFontService,sans-serif" font-weight="400" font-size="50" transform="matrix(1 0 0 1 3733.97 1255)">/Bios/Attributes/XXX</text>
    <text font-family="Calibri,Calibri_MSFontService,sans-serif" font-style="italic" font-weight="700" font-size="41" transform="matrix(1 0 0 1 380.14 1659)">Redfish Feature Protocol</text>
    <text font-family="Calibri,Calibri_MSFontService,sans-serif" font-style="italic" font-weight="700" font-size="41" transform="matrix(1 0 0 1 2829.58 2249)">Redfish Resource Config Protocol</text>
    <text font-family="Calibri,Calibri_MSFontService,sans-serif" font-style="italic" font-weight="700" font-size="41" transform="matrix(1 0 0 1 2426.51 1602)">Redfish Resource Config Protocol</text>
    <rect x="61.5" y="347.5" width="1093" height="111" stroke="#000000" stroke-width="3.4375" stroke-linejoin="round" stroke-miterlimit="10" fill="none"/>
    <path d="M406.025 362.408 469.046 362.408 469.046 440.408 406.025 440.408Z" fill="#C0C0C0" fill-rule="evenodd"/>
    <path d="M496.546 362.408 715.4 362.408 715.4 440.408 496.546 440.408Z" fill="#FFFF00" fill-rule="evenodd"/>
    <path d="M742.9 362.408 836.858 362.408 836.858 440.408 742.9 440.408Z" fill="#00FF00" fill-rule="evenodd"/>
    <path d="M864.358 362.408 976.65 362.408 976.65 440.408 864.358 440.408Z" fill="#FF00FF" fill-rule="evenodd"/>
    <text font-family="Calibri,Calibri_MSFontService,sans-serif" font-weight="700" font-size="64" transform="matrix(1 0 0 1 165.4 423)">/redfish/</text>
    <text font-family="Calibri,Calibri_MSFontService,sans-serif" font-weight="700" font-size="64" transform="matrix(1 0 0 1 406.025 423)">v1</text>
    <text font-family="Calibri,Calibri_MSFontService,sans-serif" font-weight="700" font-size="64" transform="matrix(1 0 0 1 469.046 423)">/</text>
    <text font-family="Calibri,Calibri_MSFontService,sans-serif" font-weight="700" font-size="64" transform="matrix(1 0 0 1 496.546 423)">Systems</text>
    <text font-family="Calibri,Calibri_MSFontService,sans-serif" font-weight="700" font-size="64" transform="matrix(1 0 0 1 715.4 423)">/</text>
    <text font-family="Calibri,Calibri_MSFontService,sans-serif" font-weight="700" font-size="64" transform="matrix(1 0 0 1 742.9 423)">SYS</text>
    <text font-family="Calibri,Calibri_MSFontService,sans-serif" font-weight="700" font-size="64" transform="matrix(1 0 0 1 836.858 423)">/</text>
    <text font-family="Calibri,Calibri_MSFontService,sans-serif" font-weight="700" font-size="64" transform="matrix(1 0 0 1 864.358 423)">Bios</text>
    <text font-family="Calibri,Calibri_MSFontService,sans-serif" font-weight="700" font-size="64" transform="matrix(1 0 0 1 976.65 423)">/…</text>
    <path d="M62.9999 316.844 1336.22 316.844 1336.22 327.157 62.9999 327.156ZM62.9999 337.469C54.4567 337.469 47.5311 330.543 47.5312 322 47.5312 313.457 54.4567 306.531 62.9999 306.531 71.5431 306.531 78.4687 313.457 78.4687 322 78.4687 330.543 71.5431 337.469 62.9999 337.469ZM1331.06 306.532 1362 322 1331.06 337.469Z" fill="#890857"/>
    <rect x="462.5" y="483.5" width="285" height="87" fill="#CDCDCD"/>
    <path d="M438.751 483.5 438.751 570.5Z" stroke="#000000" stroke-width="9.16667" stroke-linejoin="round" stroke-miterlimit="10" fill="none" fill-rule="evenodd"/>
    <path d="M438.751 499.813 414.999 499.813 399.811 442.936" stroke="#000000" stroke-width="9.16667" stroke-linejoin="round" stroke-miterlimit="10" fill="none" fill-rule="evenodd"/>
    <text font-family="Calibri,Calibri_MSFontService,sans-serif" font-weight="700" font-size="41" transform="matrix(1 0 0 1 497.682 539)">Service Root</text>
    <rect x="629.5" y="188.5" width="413" height="102" fill="#CDCDCD"/>
    <path d="M595.085 188.5 595.085 290.5Z" stroke="#000000" stroke-width="9.16667" stroke-linejoin="round" stroke-miterlimit="10" fill="none" fill-rule="evenodd"/>
    <path d="M595.085 207.625 560.665 207.625 528.732 372.029" stroke="#000000" stroke-width="9.16667" stroke-linejoin="round" stroke-miterlimit="10" fill="none" fill-rule="evenodd"/>
    <text font-family="Calibri,Calibri_MSFontService,sans-serif" font-weight="700" font-size="41" transform="matrix(1 0 0 1 682.83 228)">Computer System </text>
    <text font-family="Calibri,Calibri_MSFontService,sans-serif" font-weight="700" font-size="41" transform="matrix(1 0 0 1 749.861 272)">Collection</text>
    <rect x="903.5" y="470.5" width="279" height="101" fill="#CDCDCD"/>
    <path d="M880.251 470.5 880.251 571.5Z" stroke="#000000" stroke-width="9.16667" stroke-linejoin="round" stroke-miterlimit="10" fill="none" fill-rule="evenodd"/>
    <path d="M880.251 489.438 856.999 489.438 806.93 438.596" stroke="#000000" stroke-width="9.16667" stroke-linejoin="round" stroke-miterlimit="10" fill="none" fill-rule="evenodd"/>
    <text font-family="Calibri,Calibri_MSFontService,sans-serif" font-weight="700" font-size="41" transform="matrix(1 0 0 1 956.072 510)">Computer </text>
    <text font-family="Calibri,Calibri_MSFontService,sans-serif" font-weight="700" font-size="41" transform="matrix(1 0 0 1 980.134 554)">System</text>
    <rect x="1221.5" y="191.5" width="279" height="102" fill="#CDCDCD"/>
    <path d="M1198.25 191.5 1198.25 293.5Z" stroke="#000000" stroke-width="9.16667" stroke-linejoin="round" stroke-miterlimit="10" fill="none" fill-rule="evenodd"/>
    <path d="M1198.25 210.625 1175 210.625 944.866 379.72" stroke="#000000" stroke-width="9.16667" stroke-linejoin="round" stroke-miterlimit="10" fill="none" fill-rule="evenodd"/>
    <text font-family="Calibri,Calibri_MSFontService,sans-serif" font-weight="700" font-size="41" transform="matrix(1 0 0 1 1324.41 254)">Bios</text>
    <text font-family="Calibri,Calibri_MSFontService,sans-serif" font-weight="400" font-size="55" transform="matrix(1 0 0 1 65.5579 241)">Register</text>
    <text font-family="Calibri,Calibri_MSFontService,sans-serif" font-weight="700" font-size="48" transform="matrix(1 0 0 1 2943.32 1981)">/redfish/v1/Systems/SYS/</text>
    <text font-family="Calibri,Calibri_MSFontService,sans-serif" font-weight="700" font-size="48" transform="matrix(1 0 0 1 3469.25 1981)">Memory/Dimm1</text>
    <path d="M2390.33 1590.83 2383.15 1590.2C2383 1590.19 2382.85 1590.16 2382.71 1590.13L2375.59 1588.38 2372.75 1587.27 2374.89 1581.96 2376.95 1582.81 2384.08 1584.56 2383.64 1584.49 2390.83 1585.12ZM2367.15 1584.88 2361.06 1581.47 2354.16 1576.55 2352.39 1575 2356.21 1570.72 2357.5 1571.89 2363.85 1576.47 2369.95 1579.88ZM2348.12 1571.18 2347.61 1570.73 2341.43 1564.18 2336.44 1557.94 2340.93 1554.37 2345.6 1560.26 2351.42 1566.46 2351.93 1566.91ZM2333.04 1553.04 2330.39 1549.06 2325.59 1540.71 2324.23 1537.81 2329.42 1535.38 2330.57 1537.86 2335.15 1545.88 2337.8 1549.86ZM2321.8 1532.62 2321.42 1531.81 2317.85 1522.57 2315.92 1516.02 2321.41 1514.41 2323.19 1520.5 2326.61 1529.38 2326.99 1530.19ZM2314.56 1510.07 2313.97 1506.17 2319.64 1505.32 2320.22 1509.22ZM2303.72 1511.98 2314 1483 2331.02 1508.61Z" fill="#8C8C8C"/>
    <path d="M2793.67 2238.69 2782.92 2237.94 2776.27 2236.64 2777.39 2231.02 2783.32 2232.22 2794.07 2232.97ZM2770.36 2235.29 2761.04 2232.24 2754.03 2229.05 2756.41 2223.84 2762.82 2226.8 2772.14 2229.85ZM2748.66 2226.39 2740.31 2221.56 2733.96 2216.95 2737.33 2212.32 2743.18 2216.6 2751.52 2221.43ZM2729.23 2213.33 2721.44 2206.63 2716.42 2201.54 2720.5 2197.52 2725.18 2202.29 2732.96 2208.99ZM2712.26 2197.23 2704.97 2188.34 2701.58 2183.51 2706.27 2180.22 2709.4 2184.7 2716.69 2193.6ZM2698.29 2178.81 2697.84 2178.16 2691.58 2167.39 2689.69 2163.39 2694.88 2160.95 2696.54 2164.52 2702.53 2174.88 2702.99 2175.53ZM2687.26 2158.2 2686.28 2156.11 2682 2144.51 2681.3 2141.43 2686.9 2140.21 2687.37 2142.53 2691.46 2153.68 2692.44 2155.77ZM2680.08 2135.83 2679.1 2131.34 2684.7 2130.12 2685.68 2134.61ZM2668.84 2137.02 2679 2108 2696.12 2133.54Z" fill="#8C8C8C"/>
    <path d="M587.149 1603.19 587.587 1598.75C587.602 1598.6 587.63 1598.45 587.67 1598.3L588.858 1593.86C588.902 1593.69 588.961 1593.53 589.034 1593.38L591.096 1589 593.017 1585.91 597.868 1588.96 596.278 1591.44 594.216 1595.82 594.392 1595.34 593.205 1599.78 593.288 1599.32 592.851 1603.75ZM596.687 1581.05 597.791 1579.71 602.21 1575.21 607.242 1570.81 609.766 1568.92 613.187 1573.52 611.007 1575.13 606.29 1579.23 602.208 1583.36 601.104 1584.7ZM614.532 1565.49 619.348 1562.28 626.283 1558.14 629.459 1556.44 632.158 1561.49 629.217 1563.06 622.526 1567.04 617.71 1570.25ZM634.629 1553.72 641.876 1550.21 650.309 1546.46 652.635 1551.69 644.374 1555.36 637.126 1558.87ZM655.715 1544.27 659.492 1542.75 669.004 1539.22 671.966 1538.22 673.809 1543.64 670.996 1544.6 661.633 1548.07 657.855 1549.59ZM677.391 1536.38 679.016 1535.82 689.374 1532.5 693.921 1531.19 695.499 1536.7 691.126 1537.95 680.859 1541.25 679.234 1541.8ZM699.429 1529.61 700.148 1529.41 716.155 1525.31 717.574 1530.87 701.726 1534.91 701.007 1535.12ZM721.706 1523.9 722.728 1523.64 738.621 1520.25 739.813 1525.86 724.147 1529.19 723.124 1529.45ZM744.225 1519.06 746.654 1518.55 761.26 1516.04 762.227 1521.69 747.846 1524.15 745.417 1524.67ZM766.907 1515.07 771.579 1514.27 784.02 1512.61 784.78 1518.29 772.546 1519.92 767.874 1520.72ZM789.698 1511.85 797.37 1510.82 806.874 1509.89 807.431 1515.59 798.13 1516.5 790.458 1517.53ZM812.576 1509.33 823.722 1508.25 829.83 1507.92 830.132 1513.64 824.278 1513.95 813.133 1515.04ZM835.551 1507.62 852.715 1506.71 853.017 1512.43 835.853 1513.34ZM849.88 1495.82 877.659 1509 850.449 1523.32Z" fill="#8C8C8C"/>
  </g>
</svg>
